<?xml version="1.0" standalone="no"?>
<!DOCTYPE svg PUBLIC "-//W3C//DTD SVG 20010904//EN"
 "http://www.w3.org/TR/2001/REC-SVG-20010904/DTD/svg10.dtd">
<svg version="1.0" xmlns="http://www.w3.org/2000/svg"
 width="90.000000pt" height="90.000000pt" viewBox="0 0 90.000000 90.000000"
 preserveAspectRatio="xMidYMid meet">
<metadata>
Created by potrace 1.11, written by Peter Selinger 2001-2013
</metadata>
<g transform="translate(0.000000,90.000000) scale(0.100000,-0.100000)"
fill="#000000" stroke="none">
<path d="M763 882 c-13 -2 -23 -8 -23 -13 0 -6 -4 -8 -9 -5 -5 3 -14 -1 -21
-9 -7 -8 -18 -15 -24 -15 -6 0 -37 -20 -68 -45 -40 -31 -79 -77 -129 -152
-101 -152 -123 -167 -114 -77 5 52 23 130 45 194 5 14 11 38 14 53 l7 28 -103
-53 c-57 -29 -106 -57 -109 -61 -3 -5 -10 -9 -15 -9 -23 -2 -44 -11 -44 -19 0
-5 -6 -9 -13 -9 -8 0 -19 -11 -25 -25 l-11 -25 52 21 c66 26 99 36 115 33 6
-1 16 -2 22 -3 11 -1 7 -14 -26 -89 -13 -28 -23 -55 -23 -58 0 -4 -3 -10 -8
-13 -11 -8 -37 -63 -35 -73 1 -5 -1 -8 -6 -8 -4 0 -12 -12 -19 -27 -19 -46
-42 -103 -44 -111 -1 -4 -10 -32 -21 -62 -10 -30 -18 -55 -17 -55 0 0 -4 -18
-10 -40 -16 -63 -22 -105 -14 -105 4 0 38 15 75 32 l68 33 67 135 c37 74 67
138 65 143 -1 4 2 7 7 7 5 0 14 13 21 30 7 16 16 30 21 30 5 0 9 5 9 12 0 10
57 106 70 118 3 3 21 30 40 60 50 80 100 132 115 120 6 -5 15 -7 18 -3 4 3 7
-3 7 -15 0 -11 4 -23 9 -27 21 -13 45 -123 46 -215 2 -100 -2 -123 -16 -115
-5 3 -37 8 -71 11 -34 3 -64 7 -67 9 -11 11 -43 -20 -61 -60 -11 -24 -20 -46
-20 -50 0 -9 108 -54 124 -51 8 1 25 11 37 22 27 24 129 151 148 184 53 91 77
165 75 230 -1 58 -23 150 -36 150 -5 0 -7 4 -4 8 5 9 -24 37 -40 38 -5 0 -19
-1 -31 -4z"/>
</g>
</svg>
